<svg width="137" height="22" viewBox="0 0 137 22" fill="none" xmlns="http://www.w3.org/2000/svg">
  <g clip-path="url(#a)">
    <path d="M135.527 18.628c.813 0 1.475.667 1.475 1.49 0 .824-.66 1.491-1.475 1.491s-1.473-.667-1.473-1.49c0-.824.66-1.49 1.473-1.49Zm0 .298c-.652 0-1.179.533-1.179 1.192 0 .66.527 1.193 1.179 1.193.652 0 1.179-.533 1.179-1.193 0-.66-.527-1.192-1.179-1.192Zm.073.448c.285 0 .516.233.516.521 0 .19-.1.355-.249.446l.375.524h-.363l-.321-.448h-.327v.448h-.294v-1.49h.663Zm0 .298h-.369v.447h.369c.116 0 .21-.09.219-.203v-.021c0-.125-.098-.224-.219-.224Z" fill="#080A0D"/>
    <path fill-rule="evenodd" clip-rule="evenodd" d="M22.859 5.373v16.24h4.011V9.434h4.297V5.375h-8.308v-.002Z" fill="#080A0D"/>
    <path fill-rule="evenodd" clip-rule="evenodd" d="M40.055 9.138c-2.129 0-4.011 1.858-4.011 4.349 0 2.49 1.882 4.349 4.011 4.349 2.129 0 4.011-1.858 4.011-4.349 0-2.49-1.882-4.349-4.011-4.349ZM32.033 13.489c0-4.556 3.505-8.41 8.024-8.41 4.519 0 8.024 3.854 8.024 8.41 0 4.555-3.505 8.41-8.024 8.41-4.519 0-8.024-3.855-8.024-8.41Z" fill="#080A0D"/>
    <path d="M64.335 21.613h4.446l5.61-16.238H70.14l-3.469 11.23-2.688-9.49c-.852-2.686-4.607-2.686-5.457 0l-2.665 9.418-3.346-11.158h-4.242l5.423 16.238h4.459l3.1-11.416 3.08 11.416Z" fill="#080A0D"/>
    <path fill-rule="evenodd" clip-rule="evenodd" d="M76.161 1.893h4.01v3.48h4.298v4.059h-4.297v8.12h4.297v4.059h-2.292c-3.323 0-6.019-2.726-6.019-6.091V1.893h.003Z" fill="#080A0D"/>
    <path fill-rule="evenodd" clip-rule="evenodd" d="M86.762.008h4.01v5.364h4.012c3.322 0 6.018 2.727 6.018 6.091v10.15h-4.011V9.434h-6.019v12.179h-4.01V.008Z" fill="#080A0D"/>
    <path d="M4.036 11.018c0-3.908 2.954-6.898 6.39-6.898 2.069 0 3.751.891 4.882 2.374h4.624c-1.569-3.738-4.945-6.458-9.508-6.458C4.574.035 0 5.048 0 11.018 0 16.987 4.563 22 10.416 22c3.129 0 5.77-1.121 7.628-3.073 1.844-1.938 2.788-4.559 2.788-7.343V9.543h-10.41v4.084h6.099c-.277.971-.754 1.808-1.383 2.47-1.025 1.075-2.58 1.821-4.72 1.821-3.433 0-6.38-2.989-6.38-6.898l-.002-.002Z" fill="#080A0D"/>
    <path d="M132.502 0h-5.63c-2.913 0-5.611 1.551-7.103 4.084l-1.775 3.014-7.091-7.096H100.796l11.222 11.228c.719.727 2.006 1.679 2.64 2.033.035.02.021.072-.019.072h-9.547v8.276h1.335c2.913 0 5.61-1.551 7.103-4.084l1.772-3.012 7.094 7.096h10.106l-11.71-11.716c-.669-.677-1.373-1.236-2.075-1.547-.038-.018-.026-.074.016-.074H132.504V-.002h-.002Z" fill="#080A0D"/>
  </g>
  <defs><clipPath id="a"><rect width="137" height="22" fill="white"/></clipPath></defs>
</svg>
